<?xml version="1.0" encoding="UTF-8"?>
<svg width="15px" height="15px" viewBox="0 0 15 15" version="1.1" xmlns="http://www.w3.org/2000/svg" xmlns:xlink="http://www.w3.org/1999/xlink">
    <!-- Generator: Sketch 42 (36781) - http://www.bohemiancoding.com/sketch -->
    <title>add</title>
    <desc>Created with Sketch.</desc>
    <defs></defs>
    <g id="Landing-page-mocks" stroke="none" stroke-width="1" fill="none" fill-rule="evenodd">
        <g id="iPhone-7" transform="translate(-171.000000, -394.000000)" fill="#DA247F">
            <g id="header" transform="translate(24.000000, 24.000000)">
                <g id="centered-title" transform="translate(1.000000, 168.000000)">
                    <g id="cta" transform="translate(0.000000, 200.000000)">
                        <g id="add" transform="translate(146.000000, 2.000000)">
                            <g id="Layer_1">
                                <path d="M14.8989308,7.64325 C14.9101232,7.611 14.9126104,7.5765 14.9157194,7.54275 C14.9175848,7.52775 14.923181,7.515 14.923181,7.49925 C14.923181,7.464 14.913854,7.4325 14.9063924,7.40025 C14.9032834,7.38675 14.9039052,7.37175 14.8995526,7.35825 C14.8833858,7.3095 14.8591357,7.26675 14.8280457,7.23075 L9.23558363,0.48525 C9.11433279,0.339 8.91722244,0.339 8.79597159,0.48525 C8.67472075,0.6315 8.67472075,0.86925 8.79597159,1.0155 L13.8605261,7.12425 L0.310899604,7.12425 C0.139283023,7.12425 0,7.29225 0,7.49925 C0,7.70625 0.139283023,7.87425 0.310899604,7.87425 L13.8617697,7.87425 L8.79597159,13.9845 C8.67472075,14.13075 8.67472075,14.3685 8.79597159,14.51475 C8.85690791,14.5875 8.93649821,14.62425 9.01608851,14.62425 C9.09567881,14.62425 9.17526911,14.5875 9.23558363,14.5155 L14.8317765,7.7655 C14.8404817,7.755 14.8435907,7.7415 14.8510523,7.731 C14.8690845,7.70325 14.8877384,7.67625 14.8989308,7.64325 Z" id="Shape"></path>
                            </g>
                        </g>
                    </g>
                </g>
            </g>
        </g>
    </g>
</svg>