<?xml version="1.0" encoding="utf-8"?>
<!-- Generator: Adobe Illustrator 21.0.0, SVG Export Plug-In . SVG Version: 6.00 Build 0)  -->
<svg version="1.1" id="Layer_1" xmlns="http://www.w3.org/2000/svg" xmlns:xlink="http://www.w3.org/1999/xlink" x="0px" y="0px"
	 viewBox="0 0 13.7 13.1" style="enable-background:new 0 0 13.7 13.1; fill: rgb(218, 36, 127);" xml:space="preserve">
<style type="text/css">
	.st0{fill:rgb(218, 36, 127);}
</style>
<g>
	<path class="st0" d="M1.6,3.1L1.6,3.1C0.6,3.1,0,2.4,0,1.5C0,0.7,0.7,0,1.7,0c1,0,1.6,0.7,1.6,1.5C3.3,2.4,2.7,3.1,1.6,3.1z
		 M3.1,13.1H0.2V4.3h2.9V13.1z M13.7,13.1h-2.9V8.4c0-1.2-0.4-2-1.5-2C8.5,6.4,8,6.9,7.8,7.4C7.7,7.6,7.7,7.9,7.7,8.2v4.9H4.7
		c0-8,0-8.8,0-8.8h2.9v1.3h0C8,4.9,8.7,4.1,10.3,4.1c1.9,0,3.4,1.3,3.4,4V13.1z"/>
</g>
</svg>
