<?xml version="1.0" encoding="UTF-8"?>
<svg width="18px" height="15px" viewBox="0 0 18 15" version="1.1" xmlns="http://www.w3.org/2000/svg" xmlns:xlink="http://www.w3.org/1999/xlink">
    <!-- Generator: Sketch 42 (36781) - http://www.bohemiancoding.com/sketch -->
    <title>add</title>
    <desc>Created with Sketch.</desc>
    <defs></defs>
    <g id="Landing-page-mocks" stroke="none" stroke-width="1" fill="none" fill-rule="evenodd">
        <g id="01-00-wj-landing-page-v4" transform="translate(-230.000000, -406.000000)" fill="#FFFFFF">
            <g id="hero-image">
                <g id="centered-title" transform="translate(90.000000, 263.000000)">
                    <g id="cta" transform="translate(0.000000, 141.000000)">
                        <g id="add" transform="translate(140.000000, 2.000000)">
                            <g id="Layer_1">
                                <path d="M17.97075,7.64325 C17.98425,7.611 17.98725,7.5765 17.991,7.54275 C17.99325,7.52775 18,7.515 18,7.49925 C18,7.464 17.98875,7.4325 17.97975,7.40025 C17.976,7.38675 17.97675,7.37175 17.9715,7.35825 C17.952,7.3095 17.92275,7.26675 17.88525,7.23075 L11.13975,0.48525 C10.9935,0.339 10.75575,0.339 10.6095,0.48525 C10.46325,0.6315 10.46325,0.86925 10.6095,1.0155 L16.71825,7.12425 L0.375,7.12425 C0.168,7.12425 0,7.29225 0,7.49925 C0,7.70625 0.168,7.87425 0.375,7.87425 L16.71975,7.87425 L10.6095,13.9845 C10.46325,14.13075 10.46325,14.3685 10.6095,14.51475 C10.683,14.5875 10.779,14.62425 10.875,14.62425 C10.971,14.62425 11.067,14.5875 11.13975,14.5155 L17.88975,7.7655 C17.90025,7.755 17.904,7.7415 17.913,7.731 C17.93475,7.70325 17.95725,7.67625 17.97075,7.64325 Z" id="Shape"></path>
                            </g>
                        </g>
                    </g>
                </g>
            </g>
        </g>
    </g>
</svg>